PathFileType	4	(X/Y/Z)	RBDS026static.trc
DataRate	CameraRate	NumFrames	NumMarkers	Units	OrigDataRate	OrigDataStartFrame	OrigNumFrames
150.000000	150.000000	4	48	mm	150.000000	131	150
Frame#	Time	L.Ankle			L.Ankle.Medial			L.ASIS			L.GTR			L.Heel.Bottom			L.Heel.Lateral			L.Heel.Top			L.HF			L.Iliac.Crest			L.Knee			L.Knee.Medial			L.MT1			L.MT2			L.MT5			L.PSIS			L.Shank.Bottom.Lateral			L.Shank.Bottom.Medial			L.Shank.Top.Lateral			L.Shank.Top.Medial			L.Thigh.Bottom.Lateral			L.Thigh.Bottom.Medial			L.Thigh.Top.Lateral			L.Thigh.Top.Medial			L.TT			R.Ankle			R.Ankle.Medial			R.ASIS			R.GTR			R.Heel.Bottom			R.Heel.Lateral			R.Heel.Top			R.HF			R.Iliac.Crest			R.Knee			R.Knee.Medial			R.MT1			R.MT2			R.MT5			R.PSIS			R.Shank.Bottom.Lateral			R.Shank.Bottom.Medial			R.Shank.Top.Lateral			R.Shank.Top.Medial			R.Thigh.Bottom.Lateral			R.Thigh.Bottom.Medial			R.Thigh.Top.Lateral			R.Thigh.Top.Medial			R.TT			
		X1	Y1	Z1	X2	Y2	Z2	X3	Y3	Z3	X4	Y4	Z4	X5	Y5	Z5	X6	Y6	Z6	X7	Y7	Z7	X8	Y8	Z8	X9	Y9	Z9	X10	Y10	Z10	X11	Y11	Z11	X12	Y12	Z12	X13	Y13	Z13	X14	Y14	Z14	X15	Y15	Z15	X16	Y16	Z16	X17	Y17	Z17	X18	Y18	Z18	X19	Y19	Z19	X20	Y20	Z20	X21	Y21	Z21	X22	Y22	Z22	X23	Y23	Z23	X24	Y24	Z24	X25	Y25	Z25	X26	Y26	Z26	X27	Y27	Z27	X28	Y28	Z28	X29	Y29	Z29	X30	Y30	Z30	X31	Y31	Z31	X32	Y32	Z32	X33	Y33	Z33	X34	Y34	Z34	X35	Y35	Z35	X36	Y36	Z36	X37	Y37	Z37	X38	Y38	Z38	X39	Y39	Z39	X40	Y40	Z40	X41	Y41	Z41	X42	Y42	Z42	X43	Y43	Z43	X44	Y44	Z44	X45	Y45	Z45	X46	Y46	Z46	X47	Y47	Z47	X48	Y48	Z48	

132	0.8733333333333334	708.4508056640625	107.0102081298828	1038.212280273438	735.9743041992188	119.3189086914063	1122.259155273438	884.1142578125	1063.036010742188	1113.357177734375	815.0344848632813	965.40185546875	1050.490478515625	640.0955200195313	41.46480560302734	1081.014282226563	675.9176635742188	62.95697784423828	1035.874145507813	649.5706787109375	88.9713134765625	1082.290283203125	790.548583984375	488.5473022460938	1025.591674804688	801.1279296875	1137.971557617188	1069.725830078125	808.598876953125	544.937255859375	1035.347900390625	795.0933837890625	528.1526489257813	1157.0888671875	864.933349609375	57.84927749633789	1122.393432617188	868.8767700195313	68.19288635253906	1077.932495117188	828.8081665039063	50.20778656005859	1012.243591308594	709.0737915039063	1106.351196289063	1183.60693359375	732.0947265625	186.4844970703125	1029.116088867188	687.0046997070313	195.5869445800781	1051.5283203125	743.350341796875	264.5425415039063	1010.936584472656	696.2188110351563	277.7165832519531	1032.828735351563	793.041259765625	665.7554931640625	1028.034545898438	731.3983764648438	664.9324340820313	1067.195190429688	786.1895141601563	775.6796875	1022.235229492188	730.099365234375	774.06884765625	1064.364624023438	845.430908203125	457.2555541992188	1071.35888671875	710.2442626953125	104.1386489868164	1418.472778320313	735.490478515625	122.0941314697266	1332.326049804688	880.7727661132813	1067.897094726563	1352.46435546875	809.074462890625	961.6314697265625	1414.215576171875	639.4015502929688	42.12811279296875	1371.15869140625	671.3555908203125	62.52179718017578	1416.547607421875	648.0525512695313	88.12238311767578	1370.66162109375	781.3980102539063	485.2762145996094	1441.31298828125	809.5685424804688	1130.44189453125	1394.023559570313	799.4814453125	538.0089111328125	1432.516967773438	803.4784545898438	525.791015625	1311.4609375	863.8269653320313	60.51139068603516	1332.908203125	870.6060791015625	71.17858123779297	1379.31396484375	834.932861328125	50.51264190673828	1444.1259765625	710.5416870117188	1106.625	1284.121948242188	725.8418579101563	179.1433258056641	1429.01806640625	678.9483032226563	186.1837768554688	1400.01904296875	725.544677734375	258.5431518554688	1446.918212890625	679.9564819335938	264.6038208007813	1417.750732421875	803.8207397460938	647.3286743164063	1440.15380859375	738.8079833984375	647.6461791992188	1408.600952148438	803.0189208984375	757.941162109375	1441.619750976563	740.6289672851563	757.5703125	1412.387817382813	842.2549438476563	458.2951354980469	1391.872802734375	
133	0.88	708.4202270507813	107.0022506713867	1038.212768554688	735.9761962890625	119.3156356811523	1122.258422851563	884.1092529296875	1063.046264648438	1113.3271484375	815.042724609375	965.4119262695313	1050.457763671875	640.0997924804688	41.46027374267578	1081.017211914063	675.9136352539063	62.96273040771484	1035.868408203125	649.57470703125	88.973388671875	1082.286865234375	790.5213623046875	488.5451965332031	1025.567260742188	801.102294921875	1137.966796875	1069.708618164063	808.5909423828125	544.9439086914063	1035.32080078125	795.0792846679688	528.1627807617188	1157.07861328125	864.9288330078125	57.84476470947266	1122.374267578125	868.8757934570313	68.19452667236328	1077.91943359375	828.8067626953125	50.20314788818359	1012.235717773438	709.0648193359375	1106.347778320313	1183.597900390625	732.0823974609375	186.4888000488281	1029.116821289063	686.9967651367188	195.5805358886719	1051.536376953125	743.32373046875	264.5414123535156	1010.929077148438	696.2051391601563	277.7029724121094	1032.82763671875	793.025146484375	665.7584838867188	1028.017333984375	731.3787231445313	664.9403076171875	1067.1796875	786.1778564453125	775.6900634765625	1022.216247558594	730.0956420898438	774.0736083984375	1064.346557617188	845.410400390625	457.2689819335938	1071.334838867188	710.2376708984375	104.1489410400391	1418.468872070313	735.482421875	122.090705871582	1332.302490234375	880.7781982421875	1067.898559570313	1352.454833984375	809.0955200195313	961.6304931640625	1414.197631835938	639.3977661132813	42.12117385864258	1371.170532226563	671.3527221679688	62.53415679931641	1416.546020507813	648.0535278320313	88.12420654296875	1370.64111328125	781.4025268554688	485.2835693359375	1441.3046875	809.5533447265625	1130.42626953125	1394.012451171875	799.48046875	538.0155029296875	1432.519775390625	803.45751953125	525.7788696289063	1311.435668945313	863.820068359375	60.50582504272461	1332.904174804688	870.5947265625	71.18555450439453	1379.320922851563	834.9340209960938	50.50852966308594	1444.123291015625	710.5512084960938	1106.610717773438	1284.110107421875	725.8384399414063	179.1436309814453	1429.015502929688	678.9557495117188	186.1813507080078	1400.0107421875	725.5435791015625	258.5609741210938	1446.913696289063	679.9609375	264.6084594726563	1417.744506835938	803.8485717773438	647.3223876953125	1440.142211914063	738.8289794921875	647.642333984375	1408.593994140625	803.03857421875	757.947265625	1441.611083984375	740.6453857421875	757.570068359375	1412.392822265625	842.2702026367188	458.2887268066406	1391.855346679688	
134	0.8866666666666667	708.41552734375	107.0163269042969	1038.20263671875	735.9763793945313	119.3183822631836	1122.253784179688	884.107421875	1063.058349609375	1113.298217773438	815.0315551757813	965.4129638671875	1050.442749023438	640.0861206054688	41.47140502929688	1081.01953125	675.9072265625	62.95690536499023	1035.875854492188	649.567138671875	88.97315216064453	1082.286254882813	790.4935913085938	488.5438842773438	1025.5478515625	801.0711059570313	1137.968505859375	1069.686401367188	808.54931640625	544.9461669921875	1035.298583984375	795.0596313476563	528.180419921875	1157.05712890625	864.92138671875	57.83969879150391	1122.3759765625	868.862548828125	68.18691253662109	1077.912109375	828.7966918945313	50.20155334472656	1012.229125976563	709.0638427734375	1106.344360351563	1183.580322265625	732.0670166015625	186.4889526367188	1029.108642578125	686.983642578125	195.5689544677734	1051.535400390625	743.306884765625	264.5374755859375	1010.925598144531	696.185302734375	277.6981811523438	1032.820068359375	793.0016479492188	665.7654418945313	1027.997680664063	731.3768310546875	664.9478149414063	1067.171630859375	786.1724853515625	775.6984252929688	1022.19873046875	730.0877075195313	774.0869750976563	1064.31298828125	845.3927612304688	457.2632751464844	1071.297119140625	710.4021606445313	104.0378265380859	1418.723510742188	735.4928588867188	122.0987777709961	1332.296508789063	880.78076171875	1067.888061523438	1352.432495117188	809.1068115234375	961.6250610351563	1414.176513671875	639.396484375	42.13869094848633	1371.15673828125	671.3558959960938	62.54178619384766	1416.546142578125	648.0474243164063	88.11650848388672	1370.636840820313	781.4140014648438	485.2813110351563	1441.289672851563	809.5457763671875	1130.427001953125	1394.004760742188	799.5009765625	538.012451171875	1432.505249023438	803.4530639648438	525.7860717773438	1311.416259765625	863.81982421875	60.50709533691406	1332.8994140625	870.595458984375	71.18378448486328	1379.319091796875	834.9379272460938	50.5147705078125	1444.121704101563	710.5525512695313	1106.596435546875	1284.101806640625	725.8394775390625	179.1482696533203	1429.007690429688	678.9510498046875	186.1911468505859	1400.001342773438	725.5413208007813	258.5512084960938	1446.90576171875	679.9611206054688	264.6131286621094	1417.737426757813	803.8659057617188	647.3118286132813	1440.124633789063	738.8478393554688	647.6442260742188	1408.5859375	803.05810546875	757.9413452148438	1441.600952148438	740.6650390625	757.5730590820313	1412.39404296875	842.2864379882813	458.2863464355469	1391.844360351563	
135	0.8933333333333334	708.3991088867188	107.0010681152344	1038.203247070313	735.9661254882813	119.3237457275391	1122.257934570313	884.0964965820313	1063.05859375	1113.281372070313	815.0364379882813	965.4229125976563	1050.417358398438	640.0977172851563	41.46304321289063	1081.004028320313	675.9034423828125	62.96291732788086	1035.869506835938	649.564697265625	88.96745300292969	1082.287475585938	790.457275390625	488.5467834472656	1025.532592773438	801.0518798828125	1137.9775390625	1069.671020507813	808.528564453125	544.9446411132813	1035.27685546875	795.05224609375	528.1898803710938	1157.049194335938	864.9180297851563	57.84987258911133	1122.363891601563	868.8573608398438	68.19686126708984	1077.9033203125	828.7850952148438	50.19820022583008	1012.221740722656	709.0572509765625	1106.339965820313	1183.573852539063	732.041259765625	186.4922180175781	1029.102783203125	686.978271484375	195.5638580322266	1051.52978515625	743.2786254882813	264.5420532226563	1010.917358398438	696.172119140625	277.7011413574219	1032.81640625	792.9816284179688	665.7659301757813	1027.982421875	731.3560791015625	664.958984375	1067.150390625	786.0443725585938	775.8191528320313	1022.15869140625	730.0758666992188	774.1044921875	1064.302734375	845.3705444335938	457.263916015625	1071.277465820313	710.4086303710938	104.0419158935547	1418.723388671875	735.4794311523438	122.1006011962891	1332.294677734375	880.7819213867188	1067.873413085938	1352.42431640625	809.1299438476563	961.6170043945313	1414.1708984375	639.3938598632813	42.13426208496094	1371.146850585938	671.358642578125	62.53049850463867	1416.552734375	648.0501708984375	88.12136077880859	1370.633178710938	781.437744140625	485.2846069335938	1441.285034179688	809.5541381835938	1130.411987304688	1394.016479492188	799.5256958007813	538.0128784179688	1432.49462890625	803.4701538085938	525.7798461914063	1311.403930664063	863.8257446289063	60.50707626342773	1332.891235351563	870.595458984375	71.18336486816406	1379.3017578125	834.9366455078125	50.51064682006836	1444.114501953125	710.5474853515625	1106.594848632813	1284.092895507813	725.843994140625	179.1528930664063	1429.004516601563	678.9591674804688	186.2008514404297	1399.997924804688	725.557373046875	258.5645446777344	1446.9013671875	679.972412109375	264.6242980957031	1417.724243164063	803.8890380859375	647.3213500976563	1440.121215820313	738.8770141601563	647.6387939453125	1408.577392578125	803.0769653320313	757.93994140625	1441.597534179688	740.6779174804688	757.5654296875	1412.38623046875	842.2972412109375	458.2785339355469	1391.830688476563	
